<svg width="47" height="24" viewBox="0 0 47 24" fill="none" xmlns="http://www.w3.org/2000/svg">
<path fill-rule="evenodd" clip-rule="evenodd" d="M46.9595 17.3256V23.7164H29.0184L26.8952 20.1949H20.3133L18.1901 23.7164H0.355148V17.3256L8.84798 0.631104H38.1482L46.9595 17.3256ZM36.2373 1.41359L44.6239 17.5864H46.3225L37.9358 1.41359H36.2373ZM2.69055 17.5864L11.0772 1.41359H9.37865L0.991985 17.5864H2.69055ZM11.9266 1.54409H35.4942V22.673H30.9053C31.4973 21.1545 31.7846 19.302 31.7846 17.5865C31.7846 11.7644 28.0405 7.01454 23.3919 7.01454C18.7433 7.01454 14.9992 11.7644 14.9992 17.5865C14.9992 19.239 15.1072 21.1182 15.6743 22.673H11.9266V1.54409ZM16.7494 22.673L16.8491 22.6016C16.2212 21.2792 16.0729 19.4365 16.0729 17.5865C16.0729 12.4596 19.3631 8.3337 23.3919 8.3337C27.4207 8.3337 30.7109 12.4596 30.7109 17.5865C30.7109 19.3595 30.3695 21.2386 29.7224 22.6016L29.8221 22.673H29.3369L27.426 19.282H19.8887L17.6593 22.673H16.7494Z" fill="#863B3B"/>
<path d="M23.6043 11.0652C26.0667 11.0652 28.063 13.4717 28.063 16.4402C28.063 17.5392 27.7894 18.5611 27.3199 19.4124H19.8886C19.4191 18.5611 19.1455 17.5392 19.1455 16.4402C19.1455 13.4717 21.1418 11.0652 23.6043 11.0652Z" fill="#863B3B"/>
</svg>
