<svg width="22" height="22" viewBox="0 0 22 22" fill="none" xmlns="http://www.w3.org/2000/svg">
<path d="M0.666704 3.70646C1.03489 4.50689 1.84418 4.92079 2.47431 4.63094C3.10443 4.34109 3.31677 3.45725 2.94858 2.65682C2.5804 1.85639 1.7711 1.44249 1.14098 1.73234C0.510857 2.02219 0.298516 2.90603 0.666704 3.70646Z" fill="#863B3B"/>
<path d="M3.27907 1.88542C3.25969 2.92673 3.90854 3.78325 4.72831 3.7985C5.54807 3.81375 6.22833 2.98196 6.2477 1.94064C6.26707 0.899329 5.61822 0.0428127 4.79846 0.027562C3.97869 0.0123113 3.29844 0.844101 3.27907 1.88542Z" fill="#863B3B"/>
<path d="M6.97361 2.20647C6.59855 3.23398 6.9189 4.29487 7.68915 4.57602C8.45939 4.85717 9.38784 4.25213 9.7629 3.22461C10.138 2.1971 9.81761 1.13622 9.04737 0.855062C8.27713 0.573908 7.34868 1.17895 6.97361 2.20647Z" fill="#863B3B"/>
<path d="M10.8181 6.53511C11.4045 5.9653 11.5336 5.14699 11.1064 4.70737C10.6792 4.26775 9.85756 4.37329 9.27115 4.94311C8.68473 5.51293 8.55564 6.33124 8.98282 6.77085C9.41 7.21047 10.2317 7.10493 10.8181 6.53511Z" fill="#863B3B"/>
<path d="M7.86619 7.82133C8.10274 6.64676 7.32619 5.43363 6.10267 5.0908C5.04575 4.7947 3.99881 5.24505 3.53647 6.1176C3.3194 6.01599 3.08259 5.95716 2.83271 5.95716C1.82063 5.95716 1 6.87925 1 8.01695C1 8.07887 1.00256 8.14079 1.00743 8.20271C1.10943 9.48396 2.33064 10.3582 3.40064 9.97512L3.39526 9.97765C3.39526 9.97765 4.5178 9.74516 5.25026 10.6433C5.54218 11.4393 6.23799 12 7.05145 12C8.1276 12 9 11.0194 9 9.8099C9 8.92721 8.5351 8.16809 7.86619 7.82133Z" fill="#863B3B"/>
<path d="M20.8018 14.0139C21.17 13.2135 20.9577 12.3296 20.3275 12.0398C19.6974 11.7499 18.8881 12.1638 18.5199 12.9643C18.1517 13.7647 18.3641 14.6485 18.9942 14.9384C19.6243 15.2282 20.4336 14.8143 20.8018 14.0139Z" fill="#863B3B"/>
<path d="M15.2219 12.2488C15.2413 13.2901 15.9215 14.1219 16.7413 14.1067C17.5611 14.0914 18.2099 13.2349 18.1905 12.1936C18.1712 11.1523 17.4909 10.3205 16.6711 10.3357C15.8514 10.351 15.2025 11.2075 15.2219 12.2488Z" fill="#863B3B"/>
<path d="M11.7062 13.5337C12.0812 14.5612 13.0097 15.1662 13.7799 14.8851C14.5502 14.6039 14.8705 13.543 14.4955 12.5155C14.1204 11.488 13.1919 10.8829 12.4217 11.1641C11.6515 11.4453 11.3311 12.5061 11.7062 13.5337Z" fill="#863B3B"/>
<path d="M12.4875 17.0777C12.9146 16.638 12.7855 15.8197 12.1991 15.2499C11.6127 14.6801 10.791 14.5746 10.3639 15.0142C9.93669 15.4538 10.0658 16.2721 10.6522 16.8419C11.2386 17.4117 12.0603 17.5173 12.4875 17.0777Z" fill="#863B3B"/>
<path d="M18.167 15.9572C17.9172 15.9572 17.6803 16.016 17.4633 16.1176C17.0007 15.2451 15.954 14.7947 14.8971 15.0908C13.6736 15.4336 12.897 16.6471 13.1336 17.8214C12.4646 18.1682 12 18.9277 12 19.8098C12 21.0193 12.8724 22 13.9485 22C14.762 22 15.4578 21.439 15.7497 20.6433C16.4822 19.7451 17.6047 19.9776 17.6047 19.9776L17.5994 19.975C18.6694 20.3581 19.8906 19.4839 19.9926 18.2026C19.9974 18.1409 20 18.0787 20 18.0168C19.9997 16.8793 19.1791 15.9572 18.167 15.9572Z" fill="#863B3B"/>
</svg>
