<svg width="40" height="32" viewBox="0 0 40 32" fill="none" xmlns="http://www.w3.org/2000/svg">
<path d="M12.0316 0.539429C13.6404 0.539429 14.9427 1.75801 14.9427 3.26331C14.9427 4.76861 13.6404 5.98718 12.0316 5.98718C10.4228 5.98718 9.1204 4.76861 9.1204 3.26331C9.1204 1.75801 10.4228 0.539429 12.0316 0.539429ZM0.846558 24.5526C0.846558 28.3875 4.17908 31.5056 8.2777 31.5056C12.3763 31.5056 15.7471 28.3875 15.7471 24.5526C15.7471 21.6495 13.8319 19.1406 11.1123 18.1013L12.338 14.1947L12.3763 14.1588L16.2451 10.5389L19.6542 13.7287H17.3559C16.4749 13.7287 15.7471 14.3739 15.7088 15.1982C15.7088 15.3057 15.7088 15.4491 15.7471 15.5924L16.8963 20.8968C17.0878 21.7212 17.9688 22.2946 18.8498 22.1154C19.7308 21.9362 20.3437 21.1119 20.1522 20.2875L19.3861 16.811H22.7569L19.3478 25.4486C19.0414 26.2371 19.4627 27.1331 20.3437 27.4198C21.1864 27.7065 22.144 27.3123 22.4505 26.4879L25.3617 19.069L26.1277 19.8574C24.9403 21.076 24.2125 22.7247 24.2125 24.5167C24.2125 28.3516 27.545 31.4698 31.6436 31.4698C35.7423 31.4698 39.1514 28.3875 39.1514 24.5526C39.1514 20.7176 35.8189 17.5995 31.7203 17.5995C30.1114 17.5995 28.6559 18.0654 27.4301 18.8898L26.0894 17.492L26.8172 15.6641C26.8938 15.4491 26.9321 15.234 26.9321 15.0548C26.9705 14.4097 26.7406 13.7646 26.2044 13.2628L19.1563 6.63231C18.4285 5.95134 17.3559 5.77214 16.4366 6.13054C16.0919 6.27391 15.7854 6.48895 15.6322 6.63231L10.0397 11.9367C9.73328 12.2234 9.58006 12.546 9.58006 12.9044H5.82619C5.40483 12.9044 5.06009 13.1911 5.02178 13.5495C4.98348 13.6929 4.83026 14.8756 5.71127 15.8075C6.28584 16.4526 7.16686 16.7752 8.316 16.7752C8.77566 16.7752 9.15871 16.4168 9.15871 15.9867C9.15871 15.5566 8.77566 15.1982 8.316 15.1982C7.66482 15.1982 7.20516 15.0548 6.93703 14.7681C6.82211 14.6606 6.78381 14.5531 6.7072 14.4097H10.4994L9.50345 17.5995C9.0821 17.5278 8.69905 17.492 8.2777 17.492C4.17908 17.5637 0.846558 20.7176 0.846558 24.5526ZM27.2769 21.0402L31.0691 25.0543C31.4138 25.3769 31.9118 25.3769 32.2182 25.126C32.563 24.8393 32.6013 24.3375 32.2948 24.0508L28.5026 20.0367C29.422 19.4632 30.4945 19.1406 31.6819 19.1406C34.8612 19.1406 37.466 21.5778 37.466 24.5526C37.466 27.5273 34.8612 29.9645 31.6819 29.9645C28.5026 29.9645 25.8979 27.5273 25.8979 24.5526C25.8979 23.2265 26.4342 22.0079 27.2769 21.0402ZM2.49367 24.5526C2.49367 21.5778 5.09839 19.1406 8.2777 19.1406C8.54583 19.1406 8.81396 19.1765 9.04379 19.2123L7.47329 24.3733C7.35838 24.7676 7.58821 25.1977 8.04787 25.341C8.12448 25.3769 8.20109 25.3769 8.2777 25.3769C8.62244 25.3769 8.96718 25.1618 9.0821 24.8034L10.6526 19.6424C12.6828 20.5026 14.0617 22.4021 14.0617 24.5884C14.0617 27.5632 11.457 30.0003 8.2777 30.0003C5.09839 30.0003 2.49367 27.5273 2.49367 24.5526Z" fill="#863B3B"/>
</svg>
