<svg width="35" height="33" viewBox="0 0 35 33" fill="none" xmlns="http://www.w3.org/2000/svg">
<path d="M23.4513 0.606934H11.1755V11.0289H0.0618286V22.5407H11.1755V32.9623H23.4513V22.5407H34.5646V11.0289H23.4513V0.606934ZM5.97871 17.135H1.49452V16.4342H5.97871V17.135ZM14.9471 17.135H10.4629V16.4342H14.9471V17.135ZM17.6869 31.7947H16.9399V27.5896H17.6869V31.7947ZM17.6869 23.3845H16.9399V19.1791H17.6869V23.3845ZM17.6869 14.974H16.9399V10.7689H17.6869V14.974ZM17.6869 6.5638H16.9399V2.3587H17.6869V6.5638ZM28.3996 16.4342H32.8838V17.135H28.3996V16.4342ZM23.9154 16.4342V17.135H19.4309V16.4342H23.9154Z" fill="#863B3B"/>
</svg>
