<svg width="49" height="28" viewBox="0 0 49 28" fill="none" xmlns="http://www.w3.org/2000/svg">
<path fill-rule="evenodd" clip-rule="evenodd" d="M49 8H0V18H49V8ZM49 19H0V28H49V19ZM3 23H6V24H3V23ZM10 23H7V24H10V23ZM11 23H14V24H11V23ZM18 23H15V24H18V23ZM19 23H22V24H19V23ZM26 23H23V24H26V23ZM27 23H30V24H27V23ZM34 23H31V24H34V23ZM35 23H38V24H35V23ZM42 23H39V24H42V23ZM43 23H46V24H43V23ZM6 13H3V14H6V13ZM7 13H10V14H7V13ZM14 13H11V14H14V13ZM15 13H18V14H15V13ZM22 13H19V14H22V13ZM23 13H26V14H23V13ZM30 13H27V14H30V13ZM31 13H34V14H31V13ZM38 13H35V14H38V13ZM39 13H42V14H39V13ZM46 13H43V14H46V13Z" fill="#863B3B"/>
<rect width="49" height="1" fill="#863B3B"/>
<rect x="3" y="4" width="3" height="1" fill="#863B3B"/>
<rect x="7" y="4" width="3" height="1" fill="#863B3B"/>
<rect x="11" y="4" width="3" height="1" fill="#863B3B"/>
<rect x="15" y="4" width="3" height="1" fill="#863B3B"/>
<rect x="19" y="4" width="3" height="1" fill="#863B3B"/>
<rect x="23" y="4" width="3" height="1" fill="#863B3B"/>
<rect x="27" y="4" width="3" height="1" fill="#863B3B"/>
<rect x="31" y="4" width="3" height="1" fill="#863B3B"/>
<rect x="35" y="4" width="3" height="1" fill="#863B3B"/>
<rect x="39" y="4" width="3" height="1" fill="#863B3B"/>
<rect x="43" y="4" width="3" height="1" fill="#863B3B"/>
</svg>
