<svg width="45" height="28" viewBox="0 0 45 28" fill="none" xmlns="http://www.w3.org/2000/svg">
<path d="M8.44572 13.8009C9.57613 13.8009 10.4925 12.9415 10.4925 11.8814C10.4925 10.8214 9.57613 9.96204 8.44572 9.96204C7.31531 9.96204 6.39893 10.8214 6.39893 11.8814C6.39893 12.9415 7.31531 13.8009 8.44572 13.8009Z" fill="#863B3B"/>
<path d="M12.6321 19.9951H10.7248L10.3992 15.8946C10.3527 14.9785 9.56187 14.2805 8.58499 14.2805H8.30588C7.74766 14.2805 7.23596 14.4986 6.86381 14.8912C6.49167 15.2838 6.35211 15.8073 6.44515 16.3308L7.23596 20.9984C7.32899 21.4347 7.70114 21.74 8.16632 21.74H11.8413L12.7716 26.6258C12.8647 27.062 13.2368 27.3674 13.702 27.3674C13.7485 27.3674 13.795 27.3674 13.8881 27.3674C14.3998 27.2801 14.7254 26.8003 14.6324 26.3641L13.5624 20.7367C13.4694 20.3005 13.0973 19.9951 12.6321 19.9951Z" fill="#863B3B"/>
<path d="M43.6599 10.0056H42.6365L41.7527 3.06956C41.6131 2.1971 40.9153 1.49913 39.985 1.36826L37.0543 0.932035C35.3331 0.670297 33.4259 0.539429 31.4721 0.539429C29.5184 0.539429 27.5646 0.670297 25.8899 0.932035L23.0058 1.36826C22.0755 1.49913 21.3312 2.1971 21.2381 3.06956L20.3543 10.0056H19.3309C18.8192 10.0056 18.4005 10.3982 18.4005 10.8781V13.2773C18.4005 13.7572 18.8192 14.1498 19.3309 14.1498H19.9356V21.6965C19.9356 22.4817 20.4008 23.1361 21.0986 23.4851V25.928C21.0986 26.7132 21.7963 27.3675 22.6337 27.3675H23.7966C24.634 27.3675 25.3317 26.7132 25.3317 25.928V23.7032H37.6591V25.928C37.6591 26.7132 38.3568 27.3675 39.1942 27.3675H40.3571C41.1944 27.3675 41.8922 26.7132 41.8922 25.928V23.4851C42.59 23.1797 43.0552 22.4817 43.0552 21.6965V14.1934H43.6599C44.1716 14.1934 44.5903 13.8008 44.5903 13.3209V10.9217C44.5903 10.3982 44.1716 10.0056 43.6599 10.0056ZM28.7276 2.1971H34.2167C34.5889 2.1971 34.868 2.45884 34.868 2.80782C34.868 3.1568 34.5889 3.41854 34.2167 3.41854H28.7276C28.3554 3.41854 28.0763 3.1568 28.0763 2.80782C28.0763 2.45884 28.3554 2.1971 28.7276 2.1971ZM25.7969 20.2134C24.727 20.2134 23.8897 19.4281 23.8897 18.4248C23.8897 17.4215 24.727 16.6363 25.7969 16.6363C26.8668 16.6363 27.7042 17.4215 27.7042 18.4248C27.7042 19.4281 26.8668 20.2134 25.7969 20.2134ZM37.1474 20.2134C36.0774 20.2134 35.2401 19.4281 35.2401 18.4248C35.2401 17.4215 36.0774 16.6363 37.1474 16.6363C38.2173 16.6363 39.0546 17.4215 39.0546 18.4248C39.0546 19.4281 38.1708 20.2134 37.1474 20.2134ZM23.3314 13.1028L24.3548 5.03259H31.4721H38.5894L39.6128 13.1028H23.3314Z" fill="#863B3B"/>
<path d="M16.3073 1.49915H1.7471C1.00281 1.49915 0.398071 2.06624 0.398071 2.76421V26.1025C0.398071 26.8004 1.00281 27.3675 1.7471 27.3675C2.49139 27.3675 3.09613 26.8004 3.09613 26.1025V23.7032H10.6321C10.9577 23.7032 11.2368 23.4415 11.2368 23.1361C11.2368 22.8307 10.9577 22.569 10.6321 22.569H7.88752C7.18974 22.569 6.585 22.0892 6.49197 21.4348L5.65464 16.5054C5.60812 16.2001 5.28249 15.982 4.95686 16.0256C4.63124 16.0692 4.39864 16.3746 4.44516 16.6799L5.28249 21.6093C5.32901 21.9583 5.46856 22.2636 5.65464 22.569H3.04961V3.98565H16.3073C17.0516 3.98565 17.6564 3.41855 17.6564 2.72059C17.6564 2.02262 17.0516 1.49915 16.3073 1.49915Z" fill="#863B3B"/>
</svg>
