<svg width="21" height="26" viewBox="0 0 21 26" fill="none" xmlns="http://www.w3.org/2000/svg">
<path fill-rule="evenodd" clip-rule="evenodd" d="M12.1272 0C10.7637 0 9.65466 1.10128 9.65466 2.45537C9.65495 3.81789 10.7641 4.91075 12.1272 4.91075C13.4992 4.91075 14.6111 3.81789 14.6111 2.45537C14.6111 1.10128 13.4992 0 12.1272 0ZM11.7589 5.63284H11.3663H11.7688C11.7655 5.63284 11.7622 5.63284 11.7589 5.63284H11.7589ZM11.3663 5.63284C11.3654 5.63281 11.3648 5.63284 11.364 5.63284C11.3622 5.63281 11.3604 5.63284 11.3586 5.63284C11.355 5.63281 11.3513 5.63284 11.3477 5.63284H11.3474L10.6949 5.63572C9.87159 5.63575 8.94663 5.85224 8.26182 6.2165H8.26443C6.78065 7.03097 5.79683 7.76567 5.1795 8.78467C4.44758 9.9928 4.38007 11.361 4.38574 13.2424C4.37948 13.7802 4.81755 14.2191 5.35911 14.2175C5.90069 14.2146 6.33619 13.7744 6.32668 13.2366C6.3212 11.4176 6.42746 10.4637 6.84263 9.77843C7.15983 9.25485 7.74796 8.74745 8.85265 8.10475L7.96046 12.3403L7.88533 12.6973C7.77144 13.2382 7.84742 13.6468 8.15144 14.1148L9.83894 16.7123L10.232 17.3173L10.3165 17.4474L11.2587 18.8976L14.1755 23.3873C14.5854 24.0388 15.453 24.2312 16.1031 23.8147C16.7531 23.3982 16.9342 22.5339 16.5054 21.8944L11.3248 13.9201L11.797 11.9626L12.1427 10.5299C13.1338 12.3172 15.4348 12.8009 17.0096 13.1722C17.5349 13.3029 18.0662 12.9815 18.1903 12.4581C18.3144 11.9346 17.9833 11.4115 17.4545 11.2958C15.6715 10.8789 14.7619 10.5549 14.1871 9.99482C13.8866 9.70204 13.5942 9.29417 13.367 8.6663C13.1397 8.0384 13.0333 7.34472 12.8311 6.72451L12.8293 6.71818H12.829C12.6239 6.10175 12.0321 5.64337 11.3666 5.63444L11.3663 5.63284ZM7.48105 14.6139L6.64298 18.5933L3.90159 21.7374C3.3869 22.3108 3.44434 23.1917 4.02913 23.6946C4.61391 24.1974 5.49994 24.1278 5.99786 23.5399L8.98092 20.1185C9.13931 19.9368 9.24705 19.7171 9.29347 19.4813L9.60732 17.8866L7.48105 14.6139ZM1.16158e-05 20.473V21.5122H3.09827C3.16204 21.4104 3.23472 21.3126 3.31753 21.2203L3.31008 21.2286L3.96894 20.473H0H1.16158e-05ZM9.69439 20.473C9.65611 20.526 9.61552 20.5774 9.57234 20.6269L8.80041 21.5122H12.0277L11.3525 20.473H9.69439ZM16.5142 20.473L17.1563 21.4613C17.1676 21.478 17.1778 21.4953 17.1885 21.5122H20.092V20.473H16.5142ZM1.16158e-05 24.8794V25.9186H20.092V24.8794H1.16158e-05Z" fill="#863B3B"/>
</svg>
