<svg width="33" height="30" viewBox="0 0 33 30" fill="none" xmlns="http://www.w3.org/2000/svg">
<path d="M30.2077 10.2662C30.776 9.73335 31.2225 9.11221 31.5346 8.42052C31.8575 7.70356 32.0217 6.94296 32.0217 6.15939C32.0217 5.37582 31.8575 4.61522 31.5342 3.89826C31.2221 3.20656 30.776 2.58542 30.2074 2.05254C29.6391 1.51966 28.9768 1.10097 28.2392 0.808278C27.475 0.505088 26.6635 0.351196 25.828 0.351196C24.9924 0.351196 24.1813 0.505088 23.4168 0.808278C22.6792 1.10097 22.0168 1.51933 21.4486 2.05254C20.8803 2.58542 20.4338 3.20656 20.1217 3.89826C19.7984 4.61522 19.6343 5.37582 19.6343 6.15939V9.30908H16.8169V8.34865C16.8169 8.06843 16.5747 7.84137 16.2759 7.84137C15.9771 7.84137 15.7349 8.06843 15.7349 8.34865V9.30908H12.9175V6.15939C12.9175 5.37582 12.7534 4.61522 12.4301 3.89826C12.118 3.20656 11.6718 2.58542 11.1032 2.05254C10.535 1.51966 9.87263 1.10097 9.13503 0.808278C8.37048 0.505088 7.55905 0.351196 6.72383 0.351196C5.88861 0.351196 5.07717 0.505088 4.31263 0.808278C3.57503 1.10097 2.91266 1.51933 2.34441 2.05254C1.77617 2.58542 1.32969 3.20656 1.01757 3.89826C0.694257 4.61489 0.530151 5.37582 0.530151 6.15939C0.530151 6.94296 0.694257 7.70356 1.01757 8.42052C1.32969 9.11221 1.77582 9.73335 2.34441 10.2662C2.91266 10.7991 3.57503 11.2178 4.31263 11.5105C5.07717 11.8137 5.88826 11.9676 6.72383 11.9676H11.5H12.9175H19.6346H21.0521H25.8283C26.6639 11.9676 27.475 11.8137 28.2395 11.5105C28.9771 11.2178 29.6391 10.7991 30.2077 10.2662ZM6.72383 9.30876C4.87178 9.30876 3.36509 7.89584 3.36509 6.15906C3.36509 4.42228 4.87178 3.00936 6.72383 3.00936C8.57588 3.00936 10.0826 4.42228 10.0826 6.15906V9.30876H6.72383ZM25.828 3.00969C27.68 3.00969 29.1867 4.42261 29.1867 6.15939C29.1867 7.89617 27.68 9.30908 25.828 9.30908H22.4692V6.15939C22.4696 4.42261 23.9763 3.00969 25.828 3.00969Z" fill="#863B3B"/>
<path d="M11.1032 28.1815C11.6714 27.6486 12.1179 27.0275 12.43 26.3358C12.7533 25.6188 12.9175 24.8582 12.9175 24.0746V20.9249H15.7349V21.8854C15.7349 22.1656 15.977 22.3926 16.2758 22.3926C16.5747 22.3926 16.8168 22.1656 16.8168 21.8854V20.9249H19.6342V24.0746C19.6342 24.8582 19.7983 25.6188 20.1217 26.3358C20.4338 27.0275 20.8799 27.6486 21.4485 28.1815C22.0167 28.7144 22.6791 29.1331 23.4167 29.4257C24.1813 29.7286 24.9923 29.8825 25.8279 29.8825C26.6635 29.8825 27.4746 29.7286 28.2391 29.4254C28.9767 29.1327 29.6391 28.7144 30.2073 28.1812C30.7756 27.6483 31.2221 27.0271 31.5342 26.3354C31.8575 25.6188 32.0216 24.8579 32.0216 24.0743C32.0216 23.2907 31.8575 22.5301 31.5342 21.8132C31.2221 21.1215 30.7759 20.5003 30.2073 19.9675C29.6391 19.4346 28.9767 19.0159 28.2391 18.7232C27.4746 18.42 26.6635 18.2661 25.8279 18.2661H21.0521H19.6346H12.9171H11.4996H6.72342C5.88785 18.2661 5.07677 18.42 4.31222 18.7232C3.57462 19.0159 2.91225 19.4342 2.344 19.9675C1.77575 20.5003 1.32928 21.1215 1.01716 21.8132C0.694196 22.5301 0.53009 23.2907 0.53009 24.0743C0.53009 24.8579 0.694196 25.6185 1.01751 26.3354C1.32962 27.0271 1.77575 27.6483 2.34435 28.1812C2.9126 28.714 3.57497 29.1327 4.31257 29.4254C5.07677 29.7286 5.8882 29.8825 6.72377 29.8825C7.55935 29.8825 8.37043 29.7286 9.13497 29.4254C9.87257 29.1331 10.5349 28.7144 11.1032 28.1815ZM25.8279 20.9249C27.68 20.9249 29.1867 22.3379 29.1867 24.0746C29.1867 25.8114 27.68 27.2243 25.8279 27.2243C23.9759 27.2243 22.4692 25.8114 22.4692 24.0746V20.9249H25.8279ZM3.36503 24.0743C3.36503 22.3375 4.87172 20.9246 6.72377 20.9246H10.0825V24.0743C10.0825 25.8111 8.57582 27.224 6.72377 27.224C4.87172 27.224 3.36503 25.8111 3.36503 24.0743Z" fill="#863B3B"/>
<path d="M15.7347 4.3451C15.7347 4.62532 15.9769 4.85238 16.2757 4.85238C16.5745 4.85238 16.8167 4.62532 16.8167 4.3451V2.56271C16.8167 2.28248 16.5745 2.05542 16.2757 2.05542C15.9769 2.05542 15.7347 2.28248 15.7347 2.56271V4.3451Z" fill="#863B3B"/>
<path d="M16.8167 25.8888C16.8167 25.6085 16.5745 25.3815 16.2757 25.3815C15.9769 25.3815 15.7347 25.6085 15.7347 25.8888V27.6711C15.7347 27.9514 15.9769 28.1784 16.2757 28.1784C16.5745 28.1784 16.8167 27.9514 16.8167 27.6711V25.8888Z" fill="#863B3B"/>
<path d="M30.2043 15.1169C30.2043 14.8367 29.9621 14.6096 29.6633 14.6096H27.7626C27.4638 14.6096 27.2217 14.8367 27.2217 15.1169C27.2217 15.3971 27.4638 15.6242 27.7626 15.6242H29.6633C29.9618 15.6242 30.2043 15.3971 30.2043 15.1169Z" fill="#863B3B"/>
<path d="M24.0345 15.1169C24.0345 14.8367 23.7924 14.6096 23.4935 14.6096H21.5928C21.294 14.6096 21.0519 14.8367 21.0519 15.1169C21.0519 15.3971 21.294 15.6242 21.5928 15.6242H23.4935C23.7924 15.6242 24.0345 15.3971 24.0345 15.1169Z" fill="#863B3B"/>
<path d="M11.4998 15.1169C11.4998 14.8367 11.2576 14.6096 10.9588 14.6096H9.05811C8.75929 14.6096 8.51715 14.8367 8.51715 15.1169C8.51715 15.3971 8.75929 15.6242 9.05811 15.6242H10.9588C11.2576 15.6242 11.4998 15.3971 11.4998 15.1169Z" fill="#863B3B"/>
<path d="M17.8648 15.1169C17.8648 14.8367 17.6227 14.6096 17.3238 14.6096H15.4232C15.1243 14.6096 14.8822 14.8367 14.8822 15.1169C14.8822 15.3971 15.1243 15.6242 15.4232 15.6242H17.3238C17.6227 15.6242 17.8648 15.3971 17.8648 15.1169Z" fill="#863B3B"/>
<path d="M5.3302 15.1169C5.3302 14.8367 5.08806 14.6096 4.78924 14.6096H2.88855C2.58973 14.6096 2.3476 14.8367 2.3476 15.1169C2.3476 15.3971 2.58973 15.6242 2.88855 15.6242H4.78924C5.08806 15.6242 5.3302 15.3971 5.3302 15.1169Z" fill="#863B3B"/>
</svg>
