<svg width="38" height="32" viewBox="0 0 38 32" fill="none" xmlns="http://www.w3.org/2000/svg">
<path d="M36.6287 18.0057H34.6627L23.0698 3.34142V1.4546C23.0698 1.16196 22.9269 0.881305 22.6727 0.674376C22.4184 0.467447 22.0735 0.351196 21.7139 0.351196H16.2903C15.9307 0.351196 15.5859 0.467447 15.3316 0.674376C15.0773 0.881305 14.9344 1.16196 14.9344 1.4546V3.34142L3.34158 18.0057H1.37554C1.01594 18.0057 0.671063 18.1219 0.416784 18.3289C0.162506 18.5358 0.0196533 18.8164 0.0196533 19.1091C0.0196533 19.4017 0.162506 19.6824 0.416784 19.8893C0.671063 20.0962 1.01594 20.2125 1.37554 20.2125H14.9344V21.3159H4.08733C3.72772 21.3159 3.38284 21.4321 3.12857 21.6391C2.87429 21.846 2.73143 22.1267 2.73143 22.4193C2.73143 22.7119 2.87429 22.9926 3.12857 23.1995C3.38284 23.4064 3.72772 23.5227 4.08733 23.5227H14.9344V25.7295H12.2227C11.8631 25.7295 11.5182 25.8458 11.2639 26.0527C11.0096 26.2596 10.8668 26.5403 10.8668 26.8329V30.1431C10.8668 30.4358 11.0096 30.7164 11.2639 30.9234C11.5182 31.1303 11.8631 31.2465 12.2227 31.2465H25.7816C26.1412 31.2465 26.4861 31.1303 26.7403 30.9234C26.9946 30.7164 27.1375 30.4358 27.1375 30.1431V26.8329C27.1375 26.5403 26.9946 26.2596 26.7403 26.0527C26.4861 25.8458 26.1412 25.7295 25.7816 25.7295H23.0698V23.5227H33.9169C34.2765 23.5227 34.6214 23.4064 34.8757 23.1995C35.13 22.9926 35.2728 22.7119 35.2728 22.4193C35.2728 22.1267 35.13 21.846 34.8757 21.6391C34.6214 21.4321 34.2765 21.3159 33.9169 21.3159H23.0698V20.2125H36.6287C36.9883 20.2125 37.3332 20.0962 37.5875 19.8893C37.8417 19.6824 37.9846 19.4017 37.9846 19.1091C37.9846 18.8164 37.8417 18.5358 37.5875 18.3289C37.3332 18.1219 36.9883 18.0057 36.6287 18.0057ZM31.4356 18.0057H29.2391L23.0698 9.96185V7.41299L31.4356 18.0057ZM14.9344 7.41299V9.96185L8.76515 18.0057H6.5686L14.9344 7.41299ZM11.9515 18.0057L14.9344 14.1327V18.0057H11.9515ZM23.0698 14.1327L26.0528 18.0057H23.0698V14.1327Z" fill="#863B3B"/>
</svg>
